<svg width="32" height="32" fill="none" xmlns="http://www.w3.org/2000/svg"><path d="M28.236 25.502c.339-.474.54-1.055.54-1.684v-3.756a.621.621 0 00-.618-.625h-2.76c-1.275 0-2.313 1.051-2.313 2.342v2.04c0 .627.2 1.208.54 1.682a3.94 3.94 0 00-1.208.407 5.243 5.243 0 00-3.878-2.34l-.019-.005a3.7 3.7 0 00.93-2.459V16a.621.621 0 00-.617-.625h-3.75c-1.612 0-2.923 1.327-2.923 2.958v2.771a3.7 3.7 0 00.93 2.459l-.019.005a5.243 5.243 0 00-3.878 2.34 3.946 3.946 0 00-1.207-.407 2.888 2.888 0 00.539-1.683v-3.756a.621.621 0 00-.617-.625h-2.76c-1.275 0-2.313 1.051-2.313 2.342v2.04c0 .628.2 1.21.54 1.683C1.462 25.818 0 27.501 0 29.523v1.852c0 .345.276.625.617.625h30.376c.341 0 .617-.28.617-.625v-1.852c0-2.022-1.463-3.705-3.374-4.02zM4.07 21.78c0-.602.484-1.091 1.078-1.091H7.29v.76c0 .374-.3.678-.668.678H4.07v-.347zm0 1.596h2.552c.235 0 .46-.043.668-.123v.566c0 .899-.722 1.63-1.61 1.63-.888 0-1.61-.731-1.61-1.63v-.443zm2.008 3.323l-.398.403-.398-.403h.796zm2.23 2.16v1.892H1.234v-1.227a2.82 2.82 0 012.338-2.787l1.67 1.69a.614.614 0 00.874 0l1.67-1.69c.296.048.58.144.844.285a5.347 5.347 0 00-.324 1.837zm7.497-5.314c-1.329 0-2.41-1.094-2.41-2.44v-.826h3.69c.41 0 .794-.105 1.13-.291v1.117c0 1.346-1.08 2.44-2.41 2.44zm1.076 1.25l-1.076 1.09-1.076-1.09h2.152zm-3.486-6.46a1.7 1.7 0 011.688-1.709h3.132v1.259c0 .631-.507 1.144-1.13 1.144h-3.69v-.695zM22.07 30.75H9.541V29.5h4.02c.341 0 .618-.28.618-.625a.621.621 0 00-.618-.625H9.587c.265-1.776 1.67-3.178 3.433-3.418l2.349 2.377a.612.612 0 00.873 0l2.349-2.377c1.96.266 3.477 1.97 3.477 4.026v1.892zm2.251-8.97c0-.603.484-1.093 1.079-1.093h2.142v.762c0 .373-.3.677-.669.677H24.32v-.347zm0 1.595h2.552c.235 0 .46-.043.669-.123v.566c0 .899-.723 1.63-1.61 1.63-.888 0-1.61-.731-1.61-1.63v-.443zm2.008 3.323l-.398.403-.398-.403h.796zm-3.025 4.052v-1.892c0-.645-.114-1.264-.323-1.837a2.74 2.74 0 01.843-.286l1.67 1.692a.614.614 0 00.874 0l1.67-1.691a2.82 2.82 0 012.339 2.787v1.227h-7.073zM18.848 4.084a.612.612 0 00-.873 0l-3.03 3.067-1.309-1.326a.612.612 0 00-.873 0 .63.63 0 000 .884l1.746 1.767a.614.614 0 00.873 0l3.466-3.509a.63.63 0 000-.883z" fill="#00B2FF"/><path d="M18.33.542a.615.615 0 00-.814.316.628.628 0 00.312.826 5.042 5.042 0 012.947 4.596c0 2.773-2.229 5.03-4.968 5.03-2.74 0-4.97-2.257-4.97-5.03a5.046 5.046 0 012.927-4.587.628.628 0 00.308-.827.614.614 0 00-.816-.312c-2.22 1.014-3.653 3.262-3.653 5.726 0 3.463 2.783 6.28 6.204 6.28 3.42 0 6.203-2.817 6.203-6.28 0-2.477-1.444-4.73-3.68-5.738z" fill="#00B2FF"/><path d="M15.828 0h-.023c-.34 0-.617.28-.617.625s.276.625.617.625h.02c.34 0 .615-.278.617-.622A.621.621 0 0015.828 0zm.414 28.433a.618.618 0 00-.437-.183.618.618 0 00-.617.625.619.619 0 00.617.625.618.618 0 00.618-.625.634.634 0 00-.181-.442z" fill="#00B2FF"/></svg>