<svg width="31" height="26" fill="none" xmlns="http://www.w3.org/2000/svg"><path d="M15.102 8.184a.592.592 0 00-.59.594c0 .328.264.594.59.594.326 0 .59-.266.59-.594a.592.592 0 00-.59-.594z" fill="#00B2FF"/><path d="M28.435 11.747h-2.296C24.93 8.27 23.174 2.17 19.993.444c-1.59-.862-3.095-.26-3.66.964-.24.52-.721.793-1.23.793-.517 0-.994-.28-1.232-.793C13.326.226 11.858-.43 10.323.32 7.092 1.9 5.285 8.244 4.065 11.748H1.77c-.978 0-1.77.797-1.77 1.782 0 .982.794 1.782 1.77 1.782h26.665c.978 0 1.77-.798 1.77-1.782 0-.982-.794-1.782-1.77-1.782zM6.138 9.372h6.604c.326 0 .59-.266.59-.594a.592.592 0 00-.59-.594H6.55c1.778-4.944 3.44-6.382 4.29-6.797.926-.452 1.688-.073 1.963.522a2.514 2.514 0 002.3 1.48 2.51 2.51 0 002.3-1.48c.284-.612 1.05-.951 2.031-.42.853.464 2.51 1.948 4.221 6.695h-6.192a.592.592 0 00-.59.594c0 .328.264.594.59.594h6.605c.298.866.608 1.76.822 2.375H5.315c.214-.614.523-1.506.823-2.375zm22.297 4.75H1.77a.593.593 0 01-.59-.593c0-.328.264-.594.59-.594h26.665c.325 0 .59.266.59.594a.592.592 0 01-.59.594zm-14.513 3.564H4.483a.592.592 0 00-.59.594v2.375c0 2.947 2.382 5.345 5.31 5.345a5.299 5.299 0 004.963-3.443 2.25 2.25 0 011.873 0A5.299 5.299 0 0021.002 26c2.927 0 5.309-2.398 5.309-5.345V18.28a.592.592 0 00-.59-.594h-9.439a.592.592 0 00-.59.594v.593h-1.18v-.593a.592.592 0 00-.59-.594zm-4.72 7.126c-2.276 0-4.129-1.865-4.129-4.157v-1.781h8.26v1.781c0 2.298-1.843 4.157-4.13 4.157zm7.67-5.938h8.26v1.781c0 2.292-1.853 4.157-4.13 4.157-2.293 0-4.13-1.864-4.13-4.157v-1.781zm-1.18 1.187v.594c0 .19.011.38.03.567a3.43 3.43 0 00-1.24 0c.02-.188.03-.377.03-.567v-.594h1.18z" fill="#00B2FF"/><path d="M9.202 22.437c-.976 0-1.77-.8-1.77-1.782a.592.592 0 00-.59-.594.592.592 0 00-.59.594c0 1.637 1.324 2.97 2.95 2.97.326 0 .59-.267.59-.594a.592.592 0 00-.59-.594zm11.8 1.188c1.627 0 2.95-1.333 2.95-2.97a.592.592 0 00-.59-.594.592.592 0 00-.59.594c0 .982-.794 1.782-1.77 1.782a.592.592 0 00-.59.594c0 .327.264.594.59.594z" fill="#00B2FF"/></svg>