<svg width="33" height="32" fill="none" xmlns="http://www.w3.org/2000/svg"><path d="M10.794 7.849a.635.635 0 00-.444-.183.628.628 0 00-.629.625.628.628 0 001.258 0 .628.628 0 00-.184-.442z" fill="#00B2FF"/><path d="M32.611 2.614l-.777-.774.777-.773a.623.623 0 000-.884.631.631 0 00-.89 0l-.776.772-.765-.762a.63.63 0 00-.445-.184L19.098.004h-.002c-.84 0-1.63.325-2.224.916L11.564 6.2a.623.623 0 000 .883.631.631 0 00.889 0l5.308-5.28a1.88 1.88 0 011.335-.55h.001l10.377.007.583.58-2.332 2.319a2.59 2.59 0 00-3.144.386 2.537 2.537 0 00-.754 1.81 2.57 2.57 0 002.574 2.56c.66 0 1.32-.25 1.821-.749.85-.845.98-2.14.39-3.122l2.333-2.32.593.59-.006 10.307c0 .501-.197.972-.553 1.327L15.642 30.2a1.88 1.88 0 01-1.335.55 1.88 1.88 0 01-1.335-.55L2.425 19.711a1.86 1.86 0 01-.553-1.327c0-.502.197-.973.553-1.328L9.2 10.318a.623.623 0 000-.884.631.631 0 00-.889 0l-6.775 6.738a3.099 3.099 0 00-.92 2.212c0 .835.326 1.62.92 2.212l10.548 10.49a3.14 3.14 0 002.223.914c.806 0 1.61-.305 2.224-.915l15.337-15.253a3.1 3.1 0 00.921-2.21l.006-10.566a.623.623 0 00-.184-.442zm-5.278 4.668c-.249.247-.58.384-.931.384-.353 0-.683-.137-.932-.384a1.307 1.307 0 010-1.853 1.317 1.317 0 011.309-.33l-.726.722a.623.623 0 00.444 1.067c.161 0 .322-.06.445-.183l.723-.72c.13.446.02.947-.332 1.297z" fill="#00B2FF"/><path d="M27.463 12.585L20.14 5.3a2.501 2.501 0 00-3.52 0L5.03 16.828a2.452 2.452 0 00-.73 1.75c0 .661.26 1.283.73 1.75l7.324 7.285a2.48 2.48 0 001.76.725c.664 0 1.29-.258 1.76-.725l11.59-11.528c.47-.468.73-1.09.73-1.75 0-.661-.26-1.283-.73-1.75zm-.889 2.616l-11.59 11.528a1.227 1.227 0 01-.871.359c-.33 0-.639-.128-.871-.359l-7.325-7.285a1.214 1.214 0 01-.36-.866c0-.327.127-.635.36-.866L17.508 6.184a1.23 1.23 0 01.871-.358c.315 0 .63.12.87.358l7.325 7.285a1.217 1.217 0 01.001 1.732z" fill="#00B2FF"/><path d="M21.11 12.505a.623.623 0 000-.884.631.631 0 00-.89 0l-.361.36c-.966-.594-2.206-.514-2.99.265a2.261 2.261 0 00-.658 1.738c.031.643.31 1.257.784 1.73.505.502.562 1.264.126 1.698-.437.434-1.203.378-1.709-.125-.505-.503-.562-1.265-.126-1.7a.623.623 0 000-.883.631.631 0 00-.888 0c-.784.78-.864 2.012-.267 2.974l-.43.427a.623.623 0 000 .884.629.629 0 00.89 0l.429-.428c.422.26.896.391 1.362.391.6 0 1.186-.217 1.628-.656.926-.92.87-2.476-.126-3.466a1.379 1.379 0 01-.418-.907 1.03 1.03 0 01.292-.793c.436-.434 1.202-.378 1.708.125s.562 1.265.126 1.7a.623.623 0 00.445 1.066c.16 0 .321-.06.444-.183.784-.78.864-2.012.267-2.973l.362-.36zm-6.36 10.363l-3.229-3.21a.631.631 0 00-.889 0 .623.623 0 000 .883l3.229 3.21a.629.629 0 00.888 0 .623.623 0 000-.883zm-4.951-4.923a.634.634 0 00-.889 0 .629.629 0 00-.184.442.628.628 0 101.073-.442z" fill="#00B2FF"/></svg>